<svg width="615" height="480" xmlns="http://www.w3.org/2000/svg">

 <g>
  <title>Layer 1</title>
  <g id="svg_1">
   <g id="svg_2">
    <path id="svg_3" d="m226.764,375.35c-28.249,0 -51.078,22.91 -51.078,51.16c0,28.166 22.829,51.078 51.078,51.078s51.078,-22.912 51.078,-51.078c-0.001,-28.25 -22.829,-51.16 -51.078,-51.16zm0,76.699c-14.125,0 -25.54,-11.498 -25.54,-25.541c0,-14.123 11.415,-25.539 25.54,-25.539c14.124,0 25.539,11.416 25.539,25.539c-0.001,14.043 -11.415,25.541 -25.539,25.541zm385.236,-114.488l0,54.541c0,13.605 -11.029,24.635 -24.636,24.635l-26.36,0c-4.763,-32.684 -32.929,-57.812 -66.927,-57.812c-33.914,0 -62.082,25.129 -66.845,57.812l-133.607,0c-4.763,-32.684 -32.93,-57.812 -66.845,-57.812c-33.915,0 -62.082,25.129 -66.844,57.812l-33.012,0c-13.606,0 -24.635,-11.029 -24.635,-24.635l0,-54.541l509.711,0l0,0zm-117.857,37.789c-28.249,0 -51.16,22.91 -51.16,51.16c0,28.166 22.912,51.078 51.16,51.078c28.166,0 51.077,-22.912 51.077,-51.078c0,-28.25 -22.911,-51.16 -51.077,-51.16zm0,76.699c-14.125,0 -25.539,-11.498 -25.539,-25.541c0,-14.123 11.414,-25.539 25.539,-25.539c14.042,0 25.539,11.416 25.539,25.539c0,14.043 -11.497,25.541 -25.539,25.541zm108.15,-169.412l-96.817,-95.751c-6.159,-6.077 -14.453,-9.526 -23.076,-9.526l-48.86,0l0,-18.313c0,-13.631 -11.004,-24.635 -24.635,-24.635l-281.998,0c-13.55,0 -24.635,11.005 -24.635,24.635l0,3.86l-99.972,11.522l177.146,23.068l-179.446,17.826l178.814,25.423l-178.814,15.504l102.278,19.29l-0.007,48.403l509.712,0l0,-17.985c0,-8.787 -3.531,-17.162 -9.69,-23.321zm-42.209,3.202l-93.697,0c-2.135,0 -3.86,-1.724 -3.86,-3.859l0,-72.347c0,-2.135 1.725,-3.86 3.86,-3.86l17.82,0c0.985,0 1.971,0.411 2.71,1.068l75.796,72.347c2.544,2.381 0.819,6.651 -2.629,6.651z"/>
   </g>
  </g>
  <g id="svg_4"/>
  <g id="svg_5"/>
  <g id="svg_6"/>
  <g id="svg_7"/>
  <g id="svg_8"/>
  <g id="svg_9"/>
  <g id="svg_10"/>
  <g id="svg_11"/>
  <g id="svg_12"/>
  <g id="svg_13"/>
  <g id="svg_14"/>
  <g id="svg_15"/>
  <g id="svg_16"/>
  <g id="svg_17"/>
  <g id="svg_18"/>
 </g>
</svg>